PathFileType  4	(X/Y/Z) C:\Users\antoi\Documents\MyRepositories\mobilecap\ResultsAnalysis
DataRate	CameraRate	NumFrames	NumMarkers	Units	OrigDataRate	OrigDataStartFrame	OrigNumFrames
100.0	100.0	4	51	mm	100.0	1	158
Frame#	Time	r_knee			r_shank_antsup			r_ankle			r_calc			r_5meta			r_toe			L_knee			L_shank_antsup			L_ankle			L_calc			L_5meta			L_toe			r_sh2			r_sh3			r_sh4			L_sh2			L_sh3			r_thigh1			r_thigh2			r_thigh3			r_thigh4			r_thigh5			L_thigh1			L_thigh2			L_thigh3			L_thigh4			r.ASIS			r.PSIS			L.ASIS			L.PSIS			C7			R_Shoulder			L_Shoulder			R_Sternum			L_Sternum			R_humerus			R_elbow_med			R_elbow_lat			R_forearm			R_wrist_radius			R_wrist_ulna			L_humerus			L_elbow_med			L_elbow_lat			L_forearm			L_wrist_radius			L_wrist_ulna			R_HJC			L_HJC			R_HJC_reg			L_HJC_reg			
		X1	Y1	Z1	X2	Y2	Z2	X3	Y3	Z3	X4	Y4	Z4	X5	Y5	Z5	X6	Y6	Z6	X7	Y7	Z7	X8	Y8	Z8	X9	Y9	Z9	X10	Y10	Z10	X11	Y11	Z11	X12	Y12	Z12	X13	Y13	Z13	X14	Y14	Z14	X15	Y15	Z15	X16	Y16	Z16	X17	Y17	Z17	X18	Y18	Z18	X19	Y19	Z19	X20	Y20	Z20	X21	Y21	Z21	X22	Y22	Z22	X23	Y23	Z23	X24	Y24	Z24	X25	Y25	Z25	X26	Y26	Z26	X27	Y27	Z27	X28	Y28	Z28	X29	Y29	Z29	X30	Y30	Z30	X31	Y31	Z31	X32	Y32	Z32	X33	Y33	Z33	X34	Y34	Z34	X35	Y35	Z35	X36	Y36	Z36	X37	Y37	Z37	X38	Y38	Z38	X39	Y39	Z39	X40	Y40	Z40	X41	Y41	Z41	X42	Y42	Z42	X43	Y43	Z43	X44	Y44	Z44	X45	Y45	Z45	X46	Y46	Z46	X47	Y47	Z47	X48	Y48	Z48	X49	Y49	Z49	X50	Y50	Z50	X51	Y51	Z51	

1	0.00000000	2.91737	538.83136	-200.59448	69.22188	433.63717	-205.87034	90.04687	92.17116	-225.03862	41.93906	50.75326	-279.54569	237.11341	56.57826	-171.81716	268.04632	100.89124	-235.48442	-335.95507	536.60593	-527.22568	-337.30999	422.36363	-509.77344	-549.44419	133.00781	-490.09910	-617.00266	118.92690	-437.63493	-429.32953	33.75082	-521.35041	-392.07449	50.29302	-453.99898	107.94519	327.33643	-225.75560	4.77588	402.78396	-170.12796	49.76914	293.35466	-175.44842	-415.57331	450.54784	-548.27268	-439.50490	332.11951	-556.37468	4.87079	785.71745	-212.07308	47.33885	683.19715	-225.91040	26.83727	642.71875	-174.13614	-74.43771	743.38662	-143.14135	-29.80426	636.97381	-165.66683	-177.69927	753.86467	-553.79986	-210.15886	621.63789	-541.75107	-284.83222	775.04197	-576.65210	-319.30800	642.73544	-553.60569	-98.85257	1009.52387	-221.54280	-302.03123	1045.81928	-307.56982	-92.57187	1003.33626	-490.23303	-301.33825	1052.93416	-402.28015	-201.75573	1542.12525	-405.06655	-158.41834	1486.91635	-207.18158	-121.96085	1466.32593	-567.07336	-71.68009	1456.34079	-359.02174	-69.46925	1449.67987	-406.16593	-179.00639	1325.02986	-120.34553	-286.88509	1114.70570	-150.48118	-270.71990	1142.55527	-72.94928	-187.18801	989.73165	-45.76807	-164.20910	871.63027	-24.64840	-197.43890	866.95557	1.66182	-85.22449	1302.72623	-639.34479	-122.11942	1075.77003	-624.01497	-78.00043	1104.94715	-684.32503	61.69903	1035.87806	-610.57371	151.79358	957.55706	-600.71792	138.29826	937.55866	-642.21441	-182.30165	931.00120	-257.18896	-178.83791	918.67998	-470.19590	-169.39660	917.63979	-266.80944	-168.10154	930.93133	-443.73656	
2	0.01000000	16.45453	539.86737	-199.87422	83.25993	433.71292	-206.96091	94.67211	92.00190	-224.17566	44.86106	53.09171	-279.20404	238.74712	50.50591	-171.48050	272.40545	93.60329	-235.07078	-323.23884	535.99053	-527.59760	-326.63225	421.21025	-510.30400	-546.11719	137.10911	-491.06945	-613.83368	125.16760	-438.42264	-428.69343	33.57637	-521.49880	-391.15419	50.20587	-454.29054	119.67807	326.80189	-226.88342	20.16929	404.23121	-168.55561	62.87760	294.16196	-174.35692	-404.14144	451.37204	-548.48901	-431.25240	333.67542	-556.86382	18.52814	785.31628	-210.92766	59.78471	682.24510	-225.37824	39.12422	641.93227	-173.51680	-61.58157	743.36465	-142.64158	-17.53495	636.66612	-165.29325	-165.68795	753.59896	-553.88366	-197.93778	621.14076	-542.16427	-273.06058	774.56288	-575.56662	-306.85685	642.00967	-552.86514	-85.79110	1009.59944	-221.27099	-289.80569	1045.39865	-305.88520	-80.98181	1003.04208	-489.78658	-289.34659	1051.80759	-400.87494	-190.12244	1542.50289	-399.37825	-146.78856	1484.48021	-202.22711	-110.10992	1468.13293	-562.30416	-60.04309	1456.18033	-354.46976	-57.81964	1450.06042	-401.68092	-166.78289	1321.55768	-117.29441	-273.52682	1110.97066	-149.42342	-257.77540	1138.36851	-71.66445	-174.52709	985.41484	-44.95917	-151.86698	867.08916	-24.43791	-185.36740	862.36563	1.64805	-75.78043	1304.08431	-635.41149	-117.15993	1077.83306	-622.46245	-72.48646	1106.62377	-682.44983	65.37532	1032.90887	-609.82118	153.46849	952.13889	-601.19463	139.29825	932.92485	-642.95564	-169.20133	930.81736	-256.13936	-166.90560	918.06914	-469.13258	-156.91029	918.31949	-265.66190	-156.05248	930.26354	-442.54880	
3	0.02000000	30.16688	541.06628	-199.11825	96.97971	433.70028	-207.94616	98.99238	91.91316	-223.44347	47.51743	55.34513	-278.88838	240.21961	45.11239	-171.09936	276.41016	86.81963	-234.71357	-310.12313	535.36730	-528.03639	-315.60866	420.07588	-510.98579	-542.47618	141.41803	-492.05731	-610.25882	131.72868	-439.16264	-427.98964	33.40969	-521.63719	-390.15788	50.06168	-454.57196	130.98938	326.16483	-227.94099	35.22158	405.63972	-167.04437	75.51387	294.88179	-173.30167	-392.38616	452.30130	-548.72456	-422.71363	335.38420	-557.40043	32.19515	785.39397	-209.86684	72.45587	681.88595	-224.86629	51.80748	641.72538	-172.86587	-48.46127	743.72193	-141.97284	-4.85579	636.80339	-164.75018	-153.44290	753.41884	-553.91111	-185.28279	620.70072	-542.54572	-261.04780	774.07696	-574.45368	-294.06705	641.24605	-552.17361	-72.70846	1009.90140	-220.93837	-277.53712	1045.14074	-304.24152	-69.34309	1002.87163	-489.31191	-277.32088	1050.85781	-399.50351	-178.42952	1543.00773	-393.72576	-135.09484	1482.24128	-197.29596	-98.22403	1470.12613	-557.56682	-48.36765	1456.15248	-349.93045	-46.11081	1450.56353	-397.19455	-154.47968	1318.29483	-114.27551	-260.09599	1107.46583	-148.43250	-244.79290	1134.41527	-70.42243	-161.81348	981.32396	-44.17458	-139.47863	862.78739	-24.24048	-173.23854	858.00853	1.61083	-66.33523	1305.59105	-631.53866	-112.25244	1080.12653	-620.75052	-66.98790	1108.45740	-680.45890	68.82319	1029.94781	-609.08845	154.85341	946.70227	-601.77227	139.98672	928.30328	-643.77587	-156.08237	930.84146	-255.05180	-154.90877	917.59302	-468.02364	-144.34839	919.12027	-264.46767	-143.94376	929.74652	-441.33608	
4	0.03000000	44.10440	542.50381	-198.30921	110.09517	433.52481	-208.71376	102.78509	91.95395	-222.94370	49.71060	57.43067	-278.62396	241.42731	40.87594	-170.67400	279.80564	80.90666	-234.48580	-296.24091	534.71799	-528.60228	-303.92456	418.97975	-511.95452	-538.21825	146.10982	-493.07124	-605.90439	138.88843	-439.80497	-427.15684	33.27202	-521.75572	-389.01944	49.80036	-454.83431	141.53714	325.35194	-228.85922	49.58793	406.94927	-165.65510	87.25716	295.43626	-172.32574	-380.00972	453.42669	-548.99424	-413.62812	337.38199	-558.02975	45.88415	786.27473	-208.92240	85.49732	682.51653	-224.34765	65.13728	642.48453	-172.13354	-34.92328	744.71561	-141.03091	8.49019	637.68568	-163.91884	-140.75386	753.38927	-553.84753	-171.82809	620.35655	-542.90060	-248.58430	773.55989	-573.30638	-280.63073	640.39333	-551.58793	-59.59607	1010.61504	-220.48352	-265.18935	1045.16277	-302.67489	-57.61927	1002.91500	-488.77168	-265.23385	1050.22653	-398.19283	-166.63756	1543.73759	-388.13795	-123.28864	1480.35657	-192.41259	-86.27552	1472.44340	-552.88097	-36.62353	1456.35907	-345.41394	-34.30183	1451.28357	-392.70682	-142.04025	1315.41423	-111.31065	-246.54438	1104.38296	-147.55364	-231.74744	1130.88517	-69.25343	-149.00780	977.64819	-43.43151	-127.00130	858.92324	-24.06834	-161.00053	854.07633	1.53142	-56.87885	1307.36657	-627.77083	-107.42778	1082.83483	-618.74498	-61.51811	1110.57625	-678.25693	71.88013	1027.01818	-608.38951	155.70814	941.24484	-602.52991	140.10095	923.71757	-644.73969	-142.93543	931.23898	-253.88615	-142.79170	917.35198	-466.82217	-131.64166	920.11447	-263.18703	-131.72213	929.50080	-440.07462	
